<?xml version="1.0" encoding="utf-8"?>
<!-- Generator: Adobe Illustrator 22.1.0, SVG Export Plug-In . SVG Version: 6.00 Build 0)  -->
<svg version="1.1" id="Layer_1" xmlns="http://www.w3.org/2000/svg" xmlns:xlink="http://www.w3.org/1999/xlink" x="0px" y="0px"
	 viewBox="0 0 1024 1024" style="enable-background:new 0 0 1024 1024;" xml:space="preserve">
<style type="text/css">
	.st0{fill:#F5F5F5;}
</style>
<g>
	<path class="st0" d="M254.3,736.1c-0.3-26.4,5.4-50.5,16.3-73.4c5.3-11.3,11.1-22.4,16.6-33.6c26-52.2,52-104.4,77.9-156.6
		c5.8-11.6,14.9-18.9,27.6-21.3c25-4.8,50.9,18,42.6,46.5c-0.5,1.8-1.2,3.6-1.9,5.3c-11.5,27.9-22.9,55.8-34.5,83.7
		c-1.1,2.6-1.6,5.1-0.5,7.8c1.1,2.7,3.1,4,5.9,3.3c1.8-0.5,3.5-1.3,5.2-2.2c2.4-1.3,4.7-2.8,7-4.1c74.1-44,148.3-87.9,222.4-131.9
		c3.8-2.2,7.6-4.3,11.6-6.1c17.7-7.8,40.7,2.6,46.5,22.3c4.6,15.7-2.6,29.9-12.6,37.1c-2.7,1.9-5.6,3.6-8.4,5.3
		c-42.1,25-84.1,50-126.2,74.9c-4.3,2.6-8.6,5-12.9,7.7c-1.4,0.9-2.8,1.9-3.6,3.3c-1.7,2.7,0.1,5.8,3.3,5.6c1.4-0.1,2.9-0.6,4.1-1.2
		c2.2-1.1,4.3-2.6,6.4-3.8c52.1-30.9,104.2-61.8,156.3-92.8c5-3,10.3-5.3,16-6.8c13.6-3.6,32.7,4.3,39.1,19
		c5.3,12.2,4.9,31.1-11.2,42.4c-2.2,1.6-4.5,2.9-6.9,4.3c-53.4,31.7-106.7,63.3-160.1,95c-2.3,1.4-4.7,2.8-6.8,4.4
		c-1.6,1.2-1.9,2.8-1.2,4.4c0.9,2,2.6,3,4.5,2.4c2-0.6,3.8-1.6,5.6-2.6c18.1-10.7,36.2-21.4,54.3-32.1c24.6-14.5,49.1-29,73.7-43.5
		c2.3-1.4,4.7-2.8,7.1-3.9c13.6-5.8,26.2-4,37.2,5.7c11,9.8,14.2,22.2,10.2,36.3c-1.8,6.4-5.6,11.6-10.9,15.7
		c-3,2.3-6.1,4.3-9.3,6.3c-45.3,26.9-90.6,53.8-135.9,80.7c-1.6,1-3.2,1.9-4.8,2.9c-0.8,0.6-1.7,1.3-2.2,2.1
		c-0.9,1.3-1.2,2.9-0.2,4.1c0.7,0.9,2,1.6,3.1,1.7c1.1,0.2,2.5-0.2,3.6-0.7c1.7-0.8,3.2-1.9,4.9-2.8c30.3-17.9,60.6-35.8,90.8-53.8
		c7.7-4.6,15.9-7.5,24.9-6.3c13.6,1.9,23.7,9,28.8,21.9c5.1,13,2.4,25-6.8,35.4c-3.5,4-8,6.7-12.5,9.3
		c-17.9,10.6-35.8,21.2-53.7,31.8c-54.3,32.1-108.6,64.3-162.8,96.4c-17.7,10.5-36.4,18.3-56.6,22.3c-10.2,2-20.5,3.1-31,3.3
		c-19.3,0.4-38.2-2-56.7-7.6c-57.3-17.3-101.3-62-117.2-119C256.2,765.9,254.1,750.7,254.3,736.1z"/>
	<path class="st0" d="M267.4,841c-11.2-4.1-21.4-7.5-31-12.5c-18.8-9.8-35.8-22-50.6-37.2c-22.3-22.9-36.3-50-42.5-81.3
		c-2.7-14-4-28-3.6-42.2c0.4-15.2,0.8-30.4,1.2-45.6c1-38.3,2-76.6,2.9-114.9c0.3-12.5,0.6-25,1-37.5c0.1-4.6,0.3-9.2,0.8-13.7
		c1.9-17.1,16.3-30.7,34.7-31.7c18.8-1.1,33,11.1,37.5,24.5c1.2,3.6,2,7.2,2.2,11c0.9,21.9,1.8,43.7,2.7,65.6c0.3,7.5,0.7,15,1,22.5
		c0.1,3.9,1.6,7.3,3.4,10.6c1.7,3,4.9,3.2,7.3,0.6c1-1.1,1.8-2.3,2.6-3.5c50.7-72.8,101.5-145.6,152.2-218.3
		c2.6-3.7,5.5-7.4,8.8-10.5c6.7-6.4,14.9-10,24.3-9.7c18.5,0.7,32.8,14.2,34.5,31c0.7,7.1-0.8,13.7-4.3,19.8
		c-2.1,3.6-4.4,7.1-6.7,10.5c-11.7,16.7-23.5,33.4-35.1,50.2c-2.5,3.6-5.6,5.3-9.8,5.7c-4.6,0.4-9.1,0.8-13.6,1.7
		c-11.7,2.3-21.2,8.3-28.9,17.3c-3.9,4.6-7.1,9.7-9.8,15.2c-29.8,60-59.6,120.1-89.4,180.1c-8,16.1-14.3,32.8-18,50.4
		c-7.1,33.5-4.6,66.2,7.1,98.3c4.4,12,9.8,23.4,16.1,34.5c1,1.8,2.1,3.6,2.9,5.5C267.7,838,267.4,839.1,267.4,841z"/>
	<path class="st0" d="M878.3,436.5c-7.4-0.7-25.4-4.6-30.4-6.7c1.9-12,4.1-24.1,4.5-36.3c0.3-12.3,0.3-24.6-1-36.8
		c-1.4-12.2-3.6-24.3-6.8-36.2c-3.2-11.9-7.4-23.4-12.4-34.6c-5-11-10.7-21.6-17.4-31.8c-6.7-10.3-14.2-20.1-22.5-29.2
		c-8.3-9.1-17.2-17.6-26.8-25.3c-9.6-7.7-19.7-14.7-30.4-20.7c-28.4-16.1-58.9-25.9-91.5-29.3c-32.8-3.4-64.8,0.1-96.2,10.1
		c-31.1,10-58.9,26-83.2,47.6c-4.1-2.9-16.9-16.9-21.1-23c1.1-2.1,3.2-3.5,5.1-5.1c24.6-20.8,52.1-36.5,82.4-47.4
		c18.7-6.7,37.9-11.2,57.6-13.5c18.9-2.2,37.8-2.4,56.7-0.6c52.4,5.1,99.3,23.9,140.3,56.9c49.7,40.1,80.8,91.7,94,154.2
		c5.2,24.4,6.4,49.1,4.5,74c-0.7,9.5-2.4,19-3.8,28.5C879.5,433.1,878.8,434.8,878.3,436.5z"/>
	<path class="st0" d="M789.2,428.9c-9.7-1.5-18.5-3.6-27.8-5.8c0.1-1.6,0-3,0.2-4.3c10.2-55.4-10.2-110.5-50.1-145.8
		c-22.5-20-48.6-32.7-78.4-37.3c-46.8-7.3-88.7,4.2-125.7,33.8c-1.5,1.2-2.9,2.3-4.3,3.4c-3.7-2.6-14.6-14.5-19.1-20.7
		c0.2-2.1,2.1-2.9,3.5-4.1c22.5-19,48.1-31.8,76.8-38.7c17.9-4.3,36.2-6.1,54.5-4.8c46,3.2,85.9,20.6,118.9,53
		c28.9,28.3,46.4,62.7,53.2,102.5c3.7,21.8,3.4,43.5-0.9,65.2C790,426.2,789.7,427.2,789.2,428.9z"/>
	<path class="st0" d="M451.6,504.4c0.5-3.4,1-6,1.3-8.7c1-7.7,0.9-15.4-1.2-22.9c-2.9-10.1-8.6-18.5-16.9-24.9
		c-3.9-3-8.2-5.7-12.4-8.4c-5.3-3.5-5.6-4.7-2-9.9c17.3-24.7,34.6-49.4,51.8-74.2c4.7-6.7,10.6-11.6,18.5-14.2
		c22-7.3,45.2,8.7,46.2,31.8c0.3,6.4-1.3,12.4-4.6,17.9c-1.1,1.8-2.3,3.5-3.4,5.2c-24,34.5-48,69-72,103.5
		C455.7,501.3,454.9,503.3,451.6,504.4z"/>
	<path class="st0" d="M578.7,453.1c-0.2,1.2-0.5,3.9-1.3,6.5c-4.4,13.7-12.1,24.8-24.9,32.3c-38.4,22.5-76.7,45.3-115,68
		c-2.3,1.4-4.7,2.7-7.1,3.9c-0.8,0.4-1.9,0.2-2.9,0.3c-0.1-1-0.5-2.1-0.2-2.9c2.4-4.9,4.9-9.6,7.4-14.4c0.6-1.1,1.4-2.1,2.1-3.1
		c25-35.9,50-71.7,74.9-107.6c1.1-1.5,2.1-3.1,3.3-4.6c6.3-8.1,14.5-13.1,24.8-14.2C558.9,415.4,578.6,430.4,578.7,453.1z"/>
	<path class="st0" d="M693.8,414.6c-6-0.7-11.6-1.9-17.2-3.7c0-1.3-0.1-2.3,0-3.3c6.7-41.3-20.1-79.9-61.5-87.6
		c-21.9-4.1-42.2,0.8-60.4,13.8c-1.7,1.2-3.3,2.5-5,3.7c-0.2,0.1-0.4,0.1-0.9,0.3c-4.3-3.7-7.8-8.3-11.5-12.6c0.2-2.2,1.8-3,3.1-4
		c18.3-14.5,39.2-21.4,62.6-21.1c41.7,0.5,82.1,29.6,91.6,76.7c2.4,11.8,2.4,23.6,0.1,35.4C694.7,412.8,694.3,413.4,693.8,414.6z"/>
</g>
</svg>
